<svg width="18" height="18" viewBox="0 0 18 18" fill="none" xmlns="http://www.w3.org/2000/svg">
<path d="M8.86173 0C11.1587 9.97838e-05 13.2518 0.884105 14.826 2.33363L12.2085 5.07741C12.2188 5.08859 12.23 5.09991 12.2408 5.11167C11.3424 4.30375 10.1589 3.81281 8.86173 3.81271C6.05036 3.81271 3.77072 6.11703 3.77062 8.95962C3.77062 11.8023 6.0503 14.1065 8.86173 14.1065C11.0065 14.1064 12.8402 12.7647 13.5897 10.8665H8.86173V7.24366H12.603V7.28575H17.5649C17.6663 7.8282 17.7225 8.38735 17.7225 8.95962C17.7225 13.9079 13.7555 17.919 8.86173 17.9192C3.96775 17.9192 0 13.908 0 8.95962C9.75893e-05 4.01134 3.96781 0 8.86173 0Z" fill="#E9B71D"/>
<path d="M12.5586 7.32815H17.5205C17.6218 7.87046 17.678 8.42991 17.6781 9.00202C17.678 11.6074 16.5766 13.9518 14.8207 15.5889C14.7142 15.6868 14.606 15.783 14.4948 15.8757L11.9135 13.3903L11.6639 13.266C11.9066 13.0999 12.1338 12.9129 12.3442 12.708C12.8816 12.197 13.3111 11.5713 13.5893 10.8668H8.86135V7.28606H12.5586V7.32815Z" fill="#4385F4"/>
<path fill-rule="evenodd" clip-rule="evenodd" d="M14.8034 2.33363C13.2291 0.884103 11.1361 9.97839e-05 8.83911 0C5.42724 0 2.46555 1.94966 0.984601 4.80724L4.01422 7.28601L4.02361 7.28503C4.71102 5.26456 6.60755 3.81271 8.83911 3.81271C10.1363 3.81281 11.3198 4.30373 12.2182 5.11167C12.2124 5.10538 12.2065 5.09922 12.2007 5.09315C12.1957 5.08785 12.1907 5.08262 12.1859 5.07741L14.8034 2.33363Z" fill="#DA4948"/>
<path d="M4.04831 10.6004C4.69913 12.6709 6.6117 14.176 8.87623 14.1872C10.1734 14.1935 11.3573 13.7064 12.2597 12.9028L12.3135 12.9031C12.1271 13.0697 11.9292 13.2234 11.72 13.3612L11.9768 13.4917L14.5206 15.9651C12.9801 17.2445 11.0068 18.0103 8.85757 17.9999C5.43153 17.983 2.46879 16.0022 1.00829 13.1179L1.202 12.9407C1.98007 12.2345 3.61879 10.796 4.04831 10.6004ZM17.6136 7.41497L16.7904 7.41095L16.7904 7.40507L17.6127 7.4091C17.613 7.411 17.6133 7.41307 17.6136 7.41497Z" fill="#36A563"/>
</svg>
