<svg width="30" height="30" viewBox="0 0 30 30" fill="none" xmlns="http://www.w3.org/2000/svg">
<path fill-rule="evenodd" clip-rule="evenodd" d="M3 22.3007V14.4468C3 13.6621 3 13.2695 3.09746 12.9044C3.18382 12.5808 3.32669 12.2746 3.51855 11.9979C3.73506 11.6856 4.03596 11.4267 4.63916 10.9099L11.8415 4.73985L11.8415 4.73985C12.9598 3.7819 13.5189 3.3029 14.1486 3.12058C14.7039 2.95981 15.2958 2.95981 15.8511 3.12058C16.4813 3.30304 17.0412 3.7825 18.1611 4.74189L25.3611 10.9099C25.9643 11.4267 26.2653 11.6856 26.4818 11.9979C26.6737 12.2746 26.8155 12.5808 26.9019 12.9044C26.9993 13.2695 27 13.6621 27 14.4468V22.3058C27 23.9476 27 24.7693 26.6733 25.397C26.3857 25.9497 25.9256 26.3986 25.3611 26.6802C24.72 27 23.8815 27 22.2046 27H19V21.6667C19 19.4575 17.2091 17.6667 15 17.6667C12.7909 17.6667 11 19.4575 11 21.6667V27H7.79537C6.11849 27 5.2788 27 4.6377 26.6802C4.07321 26.3986 3.6146 25.9497 3.32698 25.397C3 24.7687 3 23.9456 3 22.3007Z" fill="#00A267"/>
<path d="M3.09746 12.9044L2.13128 12.6465L2.13128 12.6465L3.09746 12.9044ZM3.51855 11.9979L4.34034 12.5677L4.34034 12.5676L3.51855 11.9979ZM4.63916 10.9099L3.98858 10.1505L3.98858 10.1505L4.63916 10.9099ZM11.8415 4.73985L12.4921 5.49929C12.5142 5.48034 12.5355 5.46044 12.5559 5.43963L11.8415 4.73985ZM11.8415 4.73985L11.191 3.98041C11.1688 3.99936 11.1476 4.01926 11.1272 4.04007L11.8415 4.73985ZM14.1486 3.12058L14.4267 4.08113L14.4267 4.08113L14.1486 3.12058ZM15.8511 3.12058L16.1292 2.16003L16.1292 2.16003L15.8511 3.12058ZM18.1611 4.74189L17.5105 5.50133L17.5105 5.50133L18.1611 4.74189ZM25.3611 10.9099L24.7105 11.6693L24.7106 11.6693L25.3611 10.9099ZM26.4818 11.9979L27.3036 11.4281L27.3036 11.4281L26.4818 11.9979ZM26.9019 12.9044L25.9357 13.1623L25.9357 13.1623L26.9019 12.9044ZM26.6733 25.397L27.5604 25.8587L27.5604 25.8587L26.6733 25.397ZM25.3611 26.6802L24.9147 25.7853L24.9147 25.7853L25.3611 26.6802ZM19 27H18C18 27.5523 18.4477 28 19 28V27ZM11 27V28C11.5523 28 12 27.5523 12 27H11ZM4.6377 26.6802L5.08409 25.7853L5.08408 25.7853L4.6377 26.6802ZM3.32698 25.397L2.43992 25.8587L2.43992 25.8587L3.32698 25.397ZM3 14.4468H2V22.3007H3H4V14.4468H3ZM3.09746 12.9044L2.13128 12.6465C1.9921 13.168 2 13.7155 2 14.4468H3H4C4 13.6087 4.0079 13.3711 4.06364 13.1623L3.09746 12.9044ZM3.51855 11.9979L2.69677 11.4281C2.44048 11.7977 2.24801 12.2091 2.13128 12.6465L3.09746 12.9044L4.06364 13.1623C4.11963 12.9525 4.2129 12.7515 4.34034 12.5677L3.51855 11.9979ZM4.63916 10.9099L3.98858 10.1505C3.42409 10.6341 3.0036 10.9855 2.69677 11.4281L3.51855 11.9979L4.34034 12.5676C4.46652 12.3857 4.64784 12.2193 5.28974 11.6693L4.63916 10.9099ZM11.8415 4.73985L11.191 3.98042L3.98858 10.1505L4.63916 10.9099L5.28974 11.6693L12.4921 5.49929L11.8415 4.73985ZM11.8415 4.73985L11.1272 4.04007L11.1272 4.04007L11.8415 4.73985L12.5559 5.43963L12.5559 5.43963L11.8415 4.73985ZM14.1486 3.12058L13.8705 2.16003C13.3992 2.29651 12.9943 2.53475 12.5876 2.83246C12.1913 3.12258 11.7385 3.51134 11.191 3.98041L11.8415 4.73985L12.4921 5.49928C13.0628 5.01041 13.4487 4.68069 13.769 4.44625C14.0789 4.2194 14.2684 4.12697 14.4267 4.08113L14.1486 3.12058ZM15.8511 3.12058L16.1292 2.16003C15.3922 1.94666 14.6075 1.94666 13.8705 2.16003L14.1486 3.12058L14.4267 4.08113C14.8004 3.97296 15.1994 3.97296 15.573 4.08113L15.8511 3.12058ZM18.1611 4.74189L18.8117 3.98246C18.2633 3.51262 17.8099 3.1234 17.4131 2.83296C17.006 2.53494 16.6008 2.29657 16.1292 2.16003L15.8511 3.12058L15.573 4.08113C15.7316 4.12705 15.9214 4.21964 16.2318 4.44681C16.5525 4.68156 16.9391 5.01177 17.5105 5.50133L18.1611 4.74189ZM25.3611 10.9099L26.0117 10.1505L18.8117 3.98246L18.1611 4.74189L17.5105 5.50133L24.7105 11.6693L25.3611 10.9099ZM26.4818 11.9979L27.3036 11.4281C26.9968 10.9855 26.5761 10.6339 26.0117 10.1505L25.3611 10.9099L24.7106 11.6693C25.3526 12.2194 25.5339 12.3857 25.6601 12.5676L26.4818 11.9979ZM26.9019 12.9044L27.868 12.6465C27.7518 12.2111 27.5611 11.7994 27.3036 11.4281L26.4818 11.9979L25.6601 12.5676C25.7864 12.7498 25.8792 12.9505 25.9357 13.1623L26.9019 12.9044ZM27 14.4468H28C28 13.714 28.0071 13.1676 27.868 12.6465L26.9019 12.9044L25.9357 13.1623C25.9915 13.3715 26 13.6103 26 14.4468H27ZM27 22.3058H28V14.4468H27H26V22.3058H27ZM26.6733 25.397L27.5604 25.8587C27.8103 25.3785 27.9096 24.8675 27.9557 24.3149C28.0008 23.7745 28 23.1098 28 22.3058H27H26C26 23.1435 25.9992 23.7106 25.9626 24.1485C25.9271 24.5741 25.8631 24.7878 25.7863 24.9354L26.6733 25.397ZM25.3611 26.6802L25.8075 27.575C26.5572 27.201 27.1734 26.6023 27.5604 25.8587L26.6733 25.397L25.7863 24.9354C25.598 25.2971 25.2939 25.5962 24.9147 25.7853L25.3611 26.6802ZM22.2046 27V28C23.0269 28 23.7025 28.0007 24.2511 27.9568C24.8107 27.912 25.3244 27.816 25.8075 27.575L25.3611 26.6802L24.9147 25.7853C24.7566 25.8642 24.5305 25.9281 24.0915 25.9632C23.6413 25.9993 23.0592 26 22.2046 26V27ZM19 27V28H22.2046V27V26H19V27ZM19 21.6667H18V27H19H20V21.6667H19ZM15 17.6667V18.6667C16.6569 18.6667 18 20.0098 18 21.6667H19H20C20 18.9052 17.7614 16.6667 15 16.6667V17.6667ZM11 21.6667H12C12 20.0098 13.3431 18.6667 15 18.6667V17.6667V16.6667C12.2386 16.6667 10 18.9052 10 21.6667H11ZM11 27H12V21.6667H11H10V27H11ZM7.79537 27V28H11V27V26H7.79537V27ZM4.6377 26.6802L4.1913 27.575C4.67446 27.816 5.18855 27.912 5.74837 27.9568C6.29717 28.0007 6.97308 28 7.79537 28V27V26C6.94078 26 6.35841 25.9993 5.90787 25.9632C5.46835 25.928 5.24204 25.8641 5.08409 25.7853L4.6377 26.6802ZM3.32698 25.397L2.43992 25.8587C2.82635 26.6012 3.44049 27.2005 4.19131 27.575L4.6377 26.6802L5.08408 25.7853C4.70593 25.5967 4.40285 25.2982 4.21404 24.9354L3.32698 25.397ZM3 22.3007H2C2 23.1063 1.99919 23.7721 2.04433 24.3132C2.0905 24.8666 2.18984 25.3781 2.43992 25.8587L3.32698 25.397L4.21404 24.9354C4.13714 24.7876 4.07299 24.5734 4.03741 24.147C4.00081 23.7082 4 23.14 4 22.3007H3Z" fill="#00A267"/>
</svg>
