<svg width="31" height="30" viewBox="0 0 31 30" fill="none" xmlns="http://www.w3.org/2000/svg">
<path d="M15.6667 1.875C12.9326 1.8781 10.3114 2.96559 8.37807 4.89889C6.44478 6.83218 5.35729 9.45341 5.35419 12.1875C5.35419 21.0117 14.7292 27.6762 15.1288 27.9551C15.2864 28.0655 15.4742 28.1247 15.6667 28.1247C15.8591 28.1247 16.0469 28.0655 16.2046 27.9551C16.6042 27.6762 25.9792 21.0117 25.9792 12.1875C25.9761 9.45341 24.8886 6.83218 22.9553 4.89889C21.022 2.96559 18.4008 1.8781 15.6667 1.875ZM15.6667 8.4375C16.4084 8.4375 17.1334 8.65743 17.7501 9.06949C18.3668 9.48154 18.8474 10.0672 19.1312 10.7524C19.4151 11.4377 19.4893 12.1917 19.3446 12.9191C19.1999 13.6465 18.8428 14.3147 18.3183 14.8392C17.7939 15.3636 17.1257 15.7208 16.3983 15.8654C15.6708 16.0101 14.9168 15.9359 14.2316 15.652C13.5464 15.3682 12.9607 14.8876 12.5487 14.2709C12.1366 13.6542 11.9167 12.9292 11.9167 12.1875C11.9167 11.1929 12.3118 10.2391 13.015 9.53585C13.7183 8.83259 14.6721 8.4375 15.6667 8.4375Z" fill="#858585"/>
</svg>
