<svg width="30" height="30" viewBox="0 0 30 30" fill="none" xmlns="http://www.w3.org/2000/svg">
<path d="M25 5C25.663 5 26.2987 5.26358 26.7676 5.73242C27.2364 6.20126 27.5 6.83696 27.5 7.5V22.5C27.5 23.163 27.2364 23.7987 26.7676 24.2676C26.2987 24.7364 25.663 25 25 25H5C4.33696 25 3.70126 24.7364 3.23242 24.2676C2.76358 23.7987 2.5 23.163 2.5 22.5V7.5C2.5 6.83696 2.76358 6.20126 3.23242 5.73242C3.70126 5.26358 4.33696 5 5 5H25ZM19.5332 16.4004C19.2736 16.3138 18.9933 16.4525 18.9033 16.71V16.709L18.9023 16.71C18.9007 16.7142 18.897 16.7248 18.8896 16.7402C18.8748 16.7715 18.8471 16.8241 18.8027 16.8906C18.7145 17.023 18.5573 17.2145 18.2939 17.4121C17.7717 17.8038 16.7891 18.25 15 18.25C13.2109 18.25 12.2283 17.8038 11.7061 17.4121C11.4427 17.2145 11.2855 17.023 11.1973 16.8906C11.1529 16.8241 11.1252 16.7715 11.1104 16.7402C11.103 16.7248 11.0993 16.7142 11.0977 16.71L11.0967 16.709V16.71C11.0067 16.4525 10.7264 16.3138 10.4668 16.4004C10.2048 16.4877 10.0631 16.7712 10.1504 17.0332L10.625 16.875C10.1895 17.0202 10.1542 17.0328 10.1514 17.0342V17.0352L10.1523 17.0371C10.1527 17.0383 10.1528 17.0397 10.1533 17.041C10.1544 17.0441 10.1558 17.0478 10.1572 17.0518C10.1602 17.0599 10.1643 17.0704 10.1689 17.082C10.1782 17.1052 10.1911 17.1354 10.208 17.1709C10.242 17.2421 10.2925 17.3363 10.3652 17.4453C10.5113 17.6644 10.745 17.9418 11.1064 18.2129C11.8343 18.7586 13.0393 19.25 15 19.25C16.9607 19.25 18.1657 18.7586 18.8936 18.2129C19.255 17.9418 19.4887 17.6644 19.6348 17.4453C19.7075 17.3363 19.758 17.2421 19.792 17.1709C19.8089 17.1354 19.8218 17.1052 19.8311 17.082C19.8357 17.0704 19.8398 17.0599 19.8428 17.0518C19.8442 17.0478 19.8456 17.0441 19.8467 17.041C19.8472 17.0397 19.8473 17.0383 19.8477 17.0371L19.8486 17.0352V17.0342C19.8458 17.0328 19.8105 17.0202 19.375 16.875L19.8496 17.0332C19.9369 16.7712 19.7952 16.4877 19.5332 16.4004ZM10 11.875C9.30964 11.875 8.75 12.4346 8.75 13.125C8.75 13.8154 9.30964 14.375 10 14.375C10.6904 14.375 11.25 13.8154 11.25 13.125C11.25 12.4346 10.6904 11.875 10 11.875ZM20 11.875C19.3096 11.875 18.75 12.4346 18.75 13.125C18.75 13.8154 19.3096 14.375 20 14.375C20.6904 14.375 21.25 13.8154 21.25 13.125C21.25 12.4346 20.6904 11.875 20 11.875Z" fill="#858585"/>
</svg>
