<svg width="139" height="155" viewBox="0 0 139 155" fill="none" xmlns="http://www.w3.org/2000/svg">
<g filter="url(#filter0_d_18_314)">
<path d="M134.5 27.5447V26.7414C134.5 20.3908 133.543 15.3026 131.629 11.477C129.715 7.72783 127.035 4.89684 123.59 2.98401C120.145 0.994671 115.436 0 109.464 0H106.019C100.813 0 96.7547 0.918158 93.8453 2.75447C90.8594 4.59079 88.5625 6.54188 86.9547 8.60773C85.3469 10.6736 83.8539 13.5428 82.4758 17.2155L81.9016 18.4779C80.2172 22.9922 79.375 28.8799 79.375 36.1486V63.3529L89.3664 66.4479L120.948 73.3379L124.164 65.8778C126.231 60.9045 128.448 55.013 130.825 48.2033C133.275 41.3171 134.5 34.4309 134.5 27.5447Z" fill="url(#paint0_linear_18_314)"/>
<path d="M57.0984 46.0227L56.5242 44.7602C55.1461 41.0876 53.6531 38.2183 52.0453 36.1525C50.4375 34.0866 48.1406 32.1355 45.1547 30.2992C42.2453 28.4629 38.1837 27.5448 32.9812 27.5448H29.5359C23.5641 27.5448 18.8516 28.5394 15.4102 30.5288C11.9648 32.4416 9.28515 35.2726 7.37109 39.0217C5.45703 42.8474 4.5 47.9355 4.5 54.2861V55.0895C4.5 61.9757 5.725 68.8619 8.175 75.7481C10.5484 82.5577 12.7687 88.4492 14.8359 93.4226L18.0516 100.883L49.6336 93.9926L59.625 90.8977V63.6972C59.625 56.4285 58.7828 50.537 57.0984 46.0227Z" fill="url(#paint1_linear_18_314)"/>
<path d="M103.837 112.474C105.521 110.944 107.091 108.61 108.545 105.473L109.005 104.67C110.766 100.917 112.373 96.7854 113.828 92.2711L116.01 85.3849L92.4672 79.0726L76.6187 76.7772L73.3993 84.0077C71.2555 88.828 70.1836 93.6483 70.1836 98.4725V100.535C70.1836 103.901 70.7196 106.583 71.7915 108.572C72.7906 110.558 73.7438 112.165 74.6625 113.389C75.5813 114.617 76.9594 115.917 78.7969 117.291H78.9118C80.7493 118.672 83.429 119.357 86.9508 119.357H87.4102C91.2383 119.357 94.5305 118.592 97.2868 117.061C99.9703 115.611 102.152 114.081 103.837 112.474Z" fill="url(#paint2_linear_18_314)"/>
<path d="M64.3336 140.937C65.2523 139.713 66.2093 138.106 67.2047 136.117C68.2765 134.128 68.8125 131.45 68.8125 128.083V126.017C68.8125 121.197 67.7406 116.377 65.5968 111.556L62.3812 104.326L46.5328 106.621L22.9898 112.933L25.168 119.82C26.6265 124.334 28.2305 128.466 29.9915 132.215L30.4508 133.018C31.9055 136.155 33.4751 138.493 35.1594 140.023C36.8438 141.63 39.0258 143.156 41.7055 144.614C44.4618 146.14 47.754 146.905 51.5821 146.905H52.0415C55.5633 146.905 58.243 146.217 60.0805 144.839H60.1954C62.0367 143.462 63.4148 142.162 64.3336 140.937Z" fill="url(#paint3_linear_18_314)"/>
</g>
<defs>
<filter id="filter0_d_18_314" x="0.5" y="0" width="138" height="154.905" filterUnits="userSpaceOnUse" color-interpolation-filters="sRGB">
<feFlood flood-opacity="0" result="BackgroundImageFix"/>
<feColorMatrix in="SourceAlpha" type="matrix" values="0 0 0 0 0 0 0 0 0 0 0 0 0 0 0 0 0 0 127 0" result="hardAlpha"/>
<feOffset dy="4"/>
<feGaussianBlur stdDeviation="2"/>
<feComposite in2="hardAlpha" operator="out"/>
<feColorMatrix type="matrix" values="0 0 0 0 0 0 0 0 0 0 0 0 0 0 0 0 0 0 0.25 0"/>
<feBlend mode="normal" in2="BackgroundImageFix" result="effect1_dropShadow_18_314"/>
<feBlend mode="normal" in="SourceGraphic" in2="effect1_dropShadow_18_314" result="shape"/>
</filter>
<linearGradient id="paint0_linear_18_314" x1="124.996" y1="67.0156" x2="68.1947" y2="6.99164" gradientUnits="userSpaceOnUse">
<stop stop-color="#01C674"/>
<stop offset="1" stop-color="#CAFFE9"/>
</linearGradient>
<linearGradient id="paint1_linear_18_314" x1="50.1207" y1="94.5604" x2="-6.6803" y2="34.5364" gradientUnits="userSpaceOnUse">
<stop stop-color="#01C674"/>
<stop offset="1" stop-color="#CAFFE9"/>
</linearGradient>
<linearGradient id="paint2_linear_18_314" x1="108.109" y1="115.686" x2="77.7237" y2="69.7105" gradientUnits="userSpaceOnUse">
<stop stop-color="#01C674"/>
<stop offset="1" stop-color="#CAFFE9"/>
</linearGradient>
<linearGradient id="paint3_linear_18_314" x1="60.912" y1="143.235" x2="30.5258" y2="97.2615" gradientUnits="userSpaceOnUse">
<stop stop-color="#01C674"/>
<stop offset="1" stop-color="#CAFFE9"/>
</linearGradient>
</defs>
</svg>
