<svg width="31" height="30" viewBox="0 0 31 30" fill="none" xmlns="http://www.w3.org/2000/svg">
<path d="M23.5359 4.375H6.03586C4.66086 4.375 3.53586 5.5 3.53586 6.875V24.375C3.53586 25.75 4.66086 26.875 6.03586 26.875H23.5359C24.9109 26.875 26.0359 25.75 26.0359 24.375V6.875C26.0359 5.5 24.9109 4.375 23.5359 4.375ZM16.0359 21.875H9.78586C9.09836 21.875 8.53586 21.3125 8.53586 20.625C8.53586 19.9375 9.09836 19.375 9.78586 19.375H16.0359C16.7234 19.375 17.2859 19.9375 17.2859 20.625C17.2859 21.3125 16.7234 21.875 16.0359 21.875ZM19.7859 16.875H9.78586C9.09836 16.875 8.53586 16.3125 8.53586 15.625C8.53586 14.9375 9.09836 14.375 9.78586 14.375H19.7859C20.4734 14.375 21.0359 14.9375 21.0359 15.625C21.0359 16.3125 20.4734 16.875 19.7859 16.875ZM19.7859 11.875H9.78586C9.09836 11.875 8.53586 11.3125 8.53586 10.625C8.53586 9.9375 9.09836 9.375 9.78586 9.375H19.7859C20.4734 9.375 21.0359 9.9375 21.0359 10.625C21.0359 11.3125 20.4734 11.875 19.7859 11.875Z" fill="#858585"/>
</svg>
